<mxfile host="app.diagrams.net" modified="2023-05-10T14:19:01.234Z" agent="Mozilla/5.0 (Windows NT 10.0; Win64; x64) AppleWebKit/537.36 (KHTML, like Gecko) Chrome/112.0.0.0 Safari/537.36" etag="nxpvia3U_LKaJ1av4uw4" version="21.2.9" type="device">
  <diagram name="Page-1" id="zDvWlv2PzLVGkBD7wB7h">
    <mxGraphModel dx="1680" dy="773" grid="1" gridSize="10" guides="1" tooltips="1" connect="1" arrows="1" fold="1" page="1" pageScale="1" pageWidth="850" pageHeight="1100" math="0" shadow="0">
      <root>
        <mxCell id="0" />
        <mxCell id="1" parent="0" />
        <mxCell id="ZRuhUlSN-h4tqwc1rDR1-11" style="edgeStyle=orthogonalEdgeStyle;rounded=0;orthogonalLoop=1;jettySize=auto;html=1;entryX=1;entryY=0.5;entryDx=0;entryDy=0;" parent="1" source="ZRuhUlSN-h4tqwc1rDR1-1" target="ZRuhUlSN-h4tqwc1rDR1-6" edge="1">
          <mxGeometry relative="1" as="geometry" />
        </mxCell>
        <mxCell id="ZRuhUlSN-h4tqwc1rDR1-13" style="edgeStyle=orthogonalEdgeStyle;rounded=0;orthogonalLoop=1;jettySize=auto;html=1;" parent="1" source="ZRuhUlSN-h4tqwc1rDR1-1" target="ZRuhUlSN-h4tqwc1rDR1-2" edge="1">
          <mxGeometry relative="1" as="geometry" />
        </mxCell>
        <mxCell id="ZRuhUlSN-h4tqwc1rDR1-1" value="Login Page" style="rounded=1;whiteSpace=wrap;html=1;" parent="1" vertex="1">
          <mxGeometry x="495" y="70" width="120" height="60" as="geometry" />
        </mxCell>
        <mxCell id="ZRuhUlSN-h4tqwc1rDR1-8" style="edgeStyle=orthogonalEdgeStyle;rounded=0;orthogonalLoop=1;jettySize=auto;html=1;" parent="1" source="ZRuhUlSN-h4tqwc1rDR1-2" target="ZRuhUlSN-h4tqwc1rDR1-7" edge="1">
          <mxGeometry relative="1" as="geometry" />
        </mxCell>
        <object label="" Yes="" id="ZRuhUlSN-h4tqwc1rDR1-10">
          <mxCell style="edgeStyle=orthogonalEdgeStyle;rounded=0;orthogonalLoop=1;jettySize=auto;html=1;entryX=0;entryY=0.5;entryDx=0;entryDy=0;" parent="1" source="ZRuhUlSN-h4tqwc1rDR1-2" target="ZRuhUlSN-h4tqwc1rDR1-9" edge="1">
            <mxGeometry relative="1" as="geometry" />
          </mxCell>
        </object>
        <mxCell id="ZRuhUlSN-h4tqwc1rDR1-2" value="Account Matched?" style="rhombus;whiteSpace=wrap;html=1;" parent="1" vertex="1">
          <mxGeometry x="500" y="200" width="110" height="100" as="geometry" />
        </mxCell>
        <mxCell id="ZRuhUlSN-h4tqwc1rDR1-28" style="edgeStyle=orthogonalEdgeStyle;rounded=0;orthogonalLoop=1;jettySize=auto;html=1;entryX=0.5;entryY=0;entryDx=0;entryDy=0;" parent="1" source="ZRuhUlSN-h4tqwc1rDR1-6" target="ZRuhUlSN-h4tqwc1rDR1-27" edge="1">
          <mxGeometry relative="1" as="geometry" />
        </mxCell>
        <mxCell id="ZRuhUlSN-h4tqwc1rDR1-6" value="Register" style="rounded=1;whiteSpace=wrap;html=1;" parent="1" vertex="1">
          <mxGeometry x="300" y="150" width="90" height="40" as="geometry" />
        </mxCell>
        <mxCell id="ZRuhUlSN-h4tqwc1rDR1-18" style="edgeStyle=orthogonalEdgeStyle;rounded=0;orthogonalLoop=1;jettySize=auto;html=1;entryX=0.5;entryY=0;entryDx=0;entryDy=0;" parent="1" source="ZRuhUlSN-h4tqwc1rDR1-7" target="ZRuhUlSN-h4tqwc1rDR1-17" edge="1">
          <mxGeometry relative="1" as="geometry">
            <Array as="points">
              <mxPoint x="555" y="485" />
              <mxPoint x="468" y="485" />
            </Array>
          </mxGeometry>
        </mxCell>
        <mxCell id="ZRuhUlSN-h4tqwc1rDR1-22" style="edgeStyle=orthogonalEdgeStyle;rounded=0;orthogonalLoop=1;jettySize=auto;html=1;" parent="1" source="ZRuhUlSN-h4tqwc1rDR1-7" target="ZRuhUlSN-h4tqwc1rDR1-20" edge="1">
          <mxGeometry relative="1" as="geometry" />
        </mxCell>
        <mxCell id="ZRuhUlSN-h4tqwc1rDR1-7" value="Home" style="rounded=1;whiteSpace=wrap;html=1;" parent="1" vertex="1">
          <mxGeometry x="502" y="380" width="106" height="50" as="geometry" />
        </mxCell>
        <mxCell id="ZRuhUlSN-h4tqwc1rDR1-14" style="edgeStyle=orthogonalEdgeStyle;rounded=0;orthogonalLoop=1;jettySize=auto;html=1;entryX=1;entryY=0.5;entryDx=0;entryDy=0;" parent="1" source="ZRuhUlSN-h4tqwc1rDR1-9" target="ZRuhUlSN-h4tqwc1rDR1-1" edge="1">
          <mxGeometry relative="1" as="geometry">
            <Array as="points">
              <mxPoint x="750" y="100" />
            </Array>
          </mxGeometry>
        </mxCell>
        <mxCell id="ZRuhUlSN-h4tqwc1rDR1-9" value="Redirect to Login" style="rounded=1;whiteSpace=wrap;html=1;" parent="1" vertex="1">
          <mxGeometry x="705" y="225" width="95" height="50" as="geometry" />
        </mxCell>
        <mxCell id="ZRuhUlSN-h4tqwc1rDR1-25" style="edgeStyle=orthogonalEdgeStyle;rounded=0;orthogonalLoop=1;jettySize=auto;html=1;entryX=0.5;entryY=0;entryDx=0;entryDy=0;" parent="1" source="ZRuhUlSN-h4tqwc1rDR1-17" target="ZRuhUlSN-h4tqwc1rDR1-23" edge="1">
          <mxGeometry relative="1" as="geometry" />
        </mxCell>
        <mxCell id="ZRuhUlSN-h4tqwc1rDR1-26" style="edgeStyle=orthogonalEdgeStyle;rounded=0;orthogonalLoop=1;jettySize=auto;html=1;entryX=0.5;entryY=0;entryDx=0;entryDy=0;" parent="1" source="ZRuhUlSN-h4tqwc1rDR1-17" target="ZRuhUlSN-h4tqwc1rDR1-24" edge="1">
          <mxGeometry relative="1" as="geometry" />
        </mxCell>
        <mxCell id="ZRuhUlSN-h4tqwc1rDR1-17" value="Library" style="rounded=1;whiteSpace=wrap;html=1;" parent="1" vertex="1">
          <mxGeometry x="410" y="540" width="115" height="40" as="geometry" />
        </mxCell>
        <mxCell id="ZRuhUlSN-h4tqwc1rDR1-20" value="Account Settings" style="rounded=1;whiteSpace=wrap;html=1;" parent="1" vertex="1">
          <mxGeometry x="590" y="540" width="115" height="40" as="geometry" />
        </mxCell>
        <mxCell id="ZRuhUlSN-h4tqwc1rDR1-23" value="Search Book" style="rounded=1;whiteSpace=wrap;html=1;" parent="1" vertex="1">
          <mxGeometry x="380" y="620" width="70" height="30" as="geometry" />
        </mxCell>
        <mxCell id="ZRuhUlSN-h4tqwc1rDR1-24" value="Show All books" style="rounded=1;whiteSpace=wrap;html=1;" parent="1" vertex="1">
          <mxGeometry x="485" y="620" width="70" height="30" as="geometry" />
        </mxCell>
        <mxCell id="ZRuhUlSN-h4tqwc1rDR1-30" style="edgeStyle=orthogonalEdgeStyle;rounded=0;orthogonalLoop=1;jettySize=auto;html=1;entryX=0.5;entryY=0;entryDx=0;entryDy=0;" parent="1" source="ZRuhUlSN-h4tqwc1rDR1-27" target="ZRuhUlSN-h4tqwc1rDR1-29" edge="1">
          <mxGeometry relative="1" as="geometry" />
        </mxCell>
        <mxCell id="ZRuhUlSN-h4tqwc1rDR1-27" value="Enter Username&lt;br&gt;Enter Password&lt;br&gt;Enter Fullname&lt;br&gt;Enter Birthdate" style="shape=parallelogram;perimeter=parallelogramPerimeter;whiteSpace=wrap;html=1;fixedSize=1;" parent="1" vertex="1">
          <mxGeometry x="275" y="270" width="140" height="60" as="geometry" />
        </mxCell>
        <mxCell id="ZRuhUlSN-h4tqwc1rDR1-33" style="edgeStyle=orthogonalEdgeStyle;rounded=0;orthogonalLoop=1;jettySize=auto;html=1;entryX=1;entryY=0.5;entryDx=0;entryDy=0;" parent="1" source="ZRuhUlSN-h4tqwc1rDR1-29" target="ZRuhUlSN-h4tqwc1rDR1-31" edge="1">
          <mxGeometry relative="1" as="geometry" />
        </mxCell>
        <mxCell id="ZRuhUlSN-h4tqwc1rDR1-40" style="edgeStyle=orthogonalEdgeStyle;rounded=0;orthogonalLoop=1;jettySize=auto;html=1;" parent="1" source="ZRuhUlSN-h4tqwc1rDR1-29" edge="1">
          <mxGeometry relative="1" as="geometry">
            <mxPoint x="245" y="520" as="targetPoint" />
          </mxGeometry>
        </mxCell>
        <mxCell id="ZRuhUlSN-h4tqwc1rDR1-29" value="Submitted according to standards" style="rhombus;whiteSpace=wrap;html=1;" parent="1" vertex="1">
          <mxGeometry x="190" y="370" width="110" height="80" as="geometry" />
        </mxCell>
        <mxCell id="ZRuhUlSN-h4tqwc1rDR1-32" style="edgeStyle=orthogonalEdgeStyle;rounded=0;orthogonalLoop=1;jettySize=auto;html=1;" parent="1" source="ZRuhUlSN-h4tqwc1rDR1-31" target="ZRuhUlSN-h4tqwc1rDR1-1" edge="1">
          <mxGeometry relative="1" as="geometry">
            <Array as="points">
              <mxPoint x="95" y="60" />
              <mxPoint x="550" y="60" />
            </Array>
          </mxGeometry>
        </mxCell>
        <mxCell id="ZRuhUlSN-h4tqwc1rDR1-31" value="Redirect to Intro" style="rounded=1;whiteSpace=wrap;html=1;" parent="1" vertex="1">
          <mxGeometry x="50" y="395" width="90" height="30" as="geometry" />
        </mxCell>
        <mxCell id="ZRuhUlSN-h4tqwc1rDR1-34" value="0" style="text;strokeColor=none;align=center;fillColor=none;html=1;verticalAlign=middle;whiteSpace=wrap;rounded=0;" parent="1" vertex="1">
          <mxGeometry x="626.25" y="240" width="42.5" height="10" as="geometry" />
        </mxCell>
        <mxCell id="ZRuhUlSN-h4tqwc1rDR1-35" value="1" style="text;strokeColor=none;align=center;fillColor=none;html=1;verticalAlign=middle;whiteSpace=wrap;rounded=0;" parent="1" vertex="1">
          <mxGeometry x="147.5" y="400" width="42.5" height="10" as="geometry" />
        </mxCell>
        <mxCell id="ZRuhUlSN-h4tqwc1rDR1-36" value="1" style="text;strokeColor=none;align=center;fillColor=none;html=1;verticalAlign=middle;whiteSpace=wrap;rounded=0;" parent="1" vertex="1">
          <mxGeometry x="547.5" y="320" width="42.5" height="10" as="geometry" />
        </mxCell>
        <mxCell id="ZRuhUlSN-h4tqwc1rDR1-41" value="0" style="text;strokeColor=none;align=center;fillColor=none;html=1;verticalAlign=middle;whiteSpace=wrap;rounded=0;" parent="1" vertex="1">
          <mxGeometry x="232.5" y="470" width="42.5" height="10" as="geometry" />
        </mxCell>
        <mxCell id="ZRuhUlSN-h4tqwc1rDR1-49" value="(ERR.CD:4)" style="rounded=1;whiteSpace=wrap;html=1;" parent="1" vertex="1">
          <mxGeometry x="200" y="520" width="90" height="30" as="geometry" />
        </mxCell>
      </root>
    </mxGraphModel>
  </diagram>
</mxfile>
